<svg xmlns="http://www.w3.org/2000/svg" version="1.1" xmlns:xlink="http://www.w3.org/1999/xlink" xmlns:svgjs="http://svgjs.dev/svgjs" width="1500" height="424" viewBox="0 0 1500 424"><g transform="matrix(1,0,0,1,-0.9090909090909918,0.2601569617474695)"><svg viewBox="0 0 396 112" data-background-color="#ffffff" preserveAspectRatio="xMidYMid meet" height="424" width="1500" xmlns="http://www.w3.org/2000/svg" xmlns:xlink="http://www.w3.org/1999/xlink"><g id="tight-bounds" transform="matrix(1,0,0,1,0.2400000000000091,-0.06872070687668952)"><svg viewBox="0 0 395.52 112.13744141375338" height="112.13744141375338" width="395.52"><g><svg viewBox="0 0 395.52 112.13744141375338" height="112.13744141375338" width="395.52"><g><svg viewBox="0 0 395.52 112.13744141375338" height="112.13744141375338" width="395.52"><g id="textblocktransform"><svg viewBox="0 0 395.52 112.13744141375338" height="112.13744141375338" width="395.52" id="textblock"><g><svg viewBox="0 0 395.52 112.13744141375338" height="112.13744141375338" width="395.52"><g transform="matrix(1,0,0,1,0,0)"><svg width="395.52" viewBox="3.8 -36.55 130.14 36.9" height="112.13744141375338" data-palette-color="#4a596d"><path d="M22.9 0.05L22.9 0.05Q22.35 0.05 21.9-0.5 21.45-1.05 21.2-1.65L21.2-1.65 13.45-16.65 7.1-16.65 7.1-1.3Q7.1-0.65 6.58-0.33 6.05 0 5.45 0L5.45 0Q4.8 0 4.3-0.33 3.8-0.65 3.8-1.3L3.8-1.3 3.8-35.35Q3.8-35.85 4.15-36.18 4.5-36.5 5.05-36.55L5.05-36.55 13.9-36.55Q16.85-36.55 19.3-35.65 21.75-34.75 23.23-32.63 24.7-30.5 24.7-26.7L24.7-26.7Q24.7-23.6 23.68-21.6 22.65-19.6 20.88-18.53 19.1-17.45 16.9-17.05L16.9-17.05 24.6-2.25Q24.75-2.1 24.78-1.93 24.8-1.75 24.8-1.6L24.8-1.6Q24.8-1.2 24.53-0.8 24.25-0.4 23.8-0.18 23.35 0.05 22.9 0.05ZM7.1-33.5L7.1-19.5 13.9-19.5Q17.25-19.5 19.33-21.13 21.4-22.75 21.4-26.55L21.4-26.55Q21.4-30.3 19.33-31.9 17.25-33.5 13.9-33.5L13.9-33.5 7.1-33.5ZM38.85 0.35L38.85 0.35Q35.7 0.35 33.27-0.85 30.85-2.05 29.47-4.17 28.1-6.3 28.1-9.15L28.1-9.15 28.1-14.75Q28.1-17.25 29.4-19.35 30.7-21.45 32.87-22.7 35.05-23.95 37.65-23.95L37.65-23.95Q40.15-23.95 42.27-22.78 44.4-21.6 45.7-19.55 47-17.5 47-14.85L47-14.85Q47-12.9 46.35-12.08 45.7-11.25 44.72-11.05 43.75-10.85 42.65-10.85L42.65-10.85 31.35-10.85 31.35-9Q31.35-6 33.5-4.25 35.65-2.5 38.95-2.5L38.95-2.5Q40.95-2.5 42.05-3 43.15-3.5 43.77-4 44.4-4.5 44.95-4.5L44.95-4.5Q45.35-4.5 45.67-4.23 46-3.95 46.17-3.6 46.35-3.25 46.35-2.95L46.35-2.95Q46.35-2.4 45.45-1.6 44.55-0.8 42.85-0.23 41.15 0.35 38.85 0.35ZM31.35-15.15L31.35-13.25 41.35-13.25Q42.85-13.25 43.35-13.58 43.85-13.9 43.85-14.95L43.85-14.95Q43.85-16.55 43.07-18 42.3-19.45 40.87-20.35 39.45-21.25 37.6-21.25L37.6-21.25Q35.9-21.25 34.47-20.43 33.05-19.6 32.2-18.23 31.35-16.85 31.35-15.15L31.35-15.15ZM60.75 0.35L60.75 0.35Q57.45 0.35 55.3-0.9 53.15-2.15 52.1-4.3 51.05-6.45 51.05-9.15L51.05-9.15 51.05-14.5Q51.05-17.15 52.07-19.3 53.1-21.45 55.27-22.7 57.45-23.95 60.75-23.95L60.75-23.95Q62.85-23.95 64.42-23.43 66-22.9 66.87-22.15 67.75-21.4 67.75-20.7L67.75-20.7Q67.75-20.4 67.57-20.03 67.4-19.65 67.07-19.38 66.75-19.1 66.34-19.1L66.34-19.1Q65.9-19.1 65.32-19.58 64.75-20.05 63.75-20.5 62.75-20.95 60.9-20.95L60.9-20.95Q57.65-20.95 55.97-19.23 54.3-17.5 54.3-14.5L54.3-14.5 54.3-9.15Q54.3-6.1 55.97-4.38 57.65-2.65 60.95-2.65L60.95-2.65Q62.85-2.65 63.9-3.13 64.95-3.6 65.52-4.08 66.09-4.55 66.59-4.55L66.59-4.55Q67.05-4.55 67.37-4.3 67.7-4.05 67.87-3.7 68.05-3.35 68.05-2.95L68.05-2.95Q68.05-2.3 67.15-1.53 66.25-0.75 64.62-0.2 63 0.35 60.75 0.35ZM81.79 0.35L81.79 0.35Q79.14 0.35 76.99-0.95 74.84-2.25 73.54-4.42 72.24-6.6 72.24-9.05L72.24-9.05 72.24-22.4Q72.24-22.85 72.74-23.25 73.24-23.65 73.89-23.65L73.89-23.65Q74.54-23.65 75.02-23.25 75.49-22.85 75.49-22.4L75.49-22.4 75.49-9.05Q75.49-7.4 76.34-5.95 77.19-4.5 78.59-3.58 79.99-2.65 81.74-2.65L81.74-2.65Q83.54-2.65 84.94-3.55 86.34-4.45 87.17-5.93 87.99-7.4 87.99-9.05L87.99-9.05 87.99-22.45Q87.99-22.95 88.49-23.3 88.99-23.65 89.64-23.65L89.64-23.65Q90.39-23.65 90.82-23.3 91.24-22.95 91.24-22.45L91.24-22.45 91.24-9.05Q91.24-6.5 89.97-4.38 88.69-2.25 86.52-0.95 84.34 0.35 81.79 0.35ZM98.84 0L98.84 0Q98.19 0 97.72-0.4 97.24-0.8 97.24-1.3L97.24-1.3 97.24-22.45Q97.24-23 97.72-23.33 98.19-23.65 98.84-23.65L98.84-23.65Q99.54-23.65 100.02-23.33 100.49-23 100.49-22.45L100.49-22.45 100.49-1.3Q100.49-0.8 100.02-0.4 99.54 0 98.84 0ZM98.84-30.65L98.84-30.65Q97.94-30.65 97.29-31.28 96.64-31.9 96.64-32.75L96.64-32.75Q96.64-33.6 97.29-34.2 97.94-34.8 98.84-34.8L98.84-34.8Q99.79-34.8 100.42-34.2 101.04-33.6 101.04-32.75L101.04-32.75Q101.04-31.9 100.42-31.28 99.79-30.65 98.84-30.65ZM108.29 0L108.29 0Q107.64 0 107.16-0.4 106.69-0.8 106.69-1.3L106.69-1.3 106.69-22.45Q106.69-23 107.16-23.33 107.64-23.65 108.29-23.65L108.29-23.65Q108.94-23.65 109.39-23.33 109.84-23 109.84-22.45L109.84-22.45 109.84-20Q110.39-21 111.34-21.9 112.29-22.8 113.59-23.38 114.89-23.95 116.54-23.95L116.54-23.95 118.29-23.95Q118.84-23.95 119.21-23.53 119.59-23.1 119.59-22.45L119.59-22.45Q119.59-21.85 119.21-21.4 118.84-20.95 118.29-20.95L118.29-20.95 116.54-20.95Q114.89-20.95 113.36-20.08 111.84-19.2 110.89-17.57 109.94-15.95 109.94-13.65L109.94-13.65 109.94-1.3Q109.94-0.8 109.46-0.4 108.99 0 108.29 0ZM132.44 0L131.03 0Q127.19 0 125.14-1.75 123.09-3.5 123.09-7.35L123.09-7.35 123.09-33.7Q123.09-34.25 123.61-34.58 124.14-34.9 124.69-34.9L124.69-34.9Q125.34-34.9 125.84-34.58 126.34-34.25 126.34-33.7L126.34-33.7 126.34-23.65 132.84-23.65Q133.34-23.65 133.64-23.25 133.94-22.85 133.94-22.3L133.94-22.3Q133.94-21.75 133.64-21.35 133.34-20.95 132.84-20.95L132.84-20.95 126.34-20.95 126.34-7.35Q126.34-4.9 127.39-3.93 128.44-2.95 131.03-2.95L131.03-2.95 132.44-2.95Q133.14-2.95 133.51-2.53 133.89-2.1 133.89-1.5L133.89-1.5Q133.89-0.9 133.51-0.45 133.14 0 132.44 0L132.44 0Z" opacity="1" transform="matrix(1,0,0,1,0,0)" fill="#4a596d" class="wordmark-text-0" data-fill-palette-color="primary" id="text-0"></path></svg></g></svg></g></svg></g></svg></g></svg></g><defs></defs></svg><rect width="395.52" height="112.13744141375338" fill="none" stroke="none" visibility="hidden"></rect></g></svg></g></svg>